<svg t="1766044839106" class="icon" viewBox="0 0 1024 1024" version="1.1" xmlns="http://www.w3.org/2000/svg"
     p-id="11124" width="200" height="200">
    <path d="M814.5765121 357.39854527A277.8814137 277.8814137 0 0 0 558.34857177 187.55999756H257.08285523a23.17428589 23.17428589 0 0 0-23.1742859 23.17428589v602.5314331a23.17428589 23.17428589 0 0 0 23.1742859 23.17428589h254.91714477a324.19377566 324.19377566 0 0 0 324.44000244-324.44000244v-46.34857177a276.38956905 276.38956905 0 0 0-21.86349034-108.25288296zM558.34857177 233.90856933c127.78446078 0 231.74285888 103.95839811 231.7428589 231.7428589S686.13303255 697.39428711 558.34857177 697.39428711H465.65142823v-46.34857178h92.69714354a185.39428711 185.39428711 0 1 0 0-370.78857421H280.25714112v-46.34857178z m-23.17428588 185.39428712a69.60251927 69.60251927 0 0 1 69.52285767 69.52285766v23.17428589a92.79853106 92.79853106 0 0 1-92.69714356 92.69714356h-46.34857177V419.30285644zM280.25714112 326.60571289h278.09143066c76.67067648 0 139.04571533 62.37503886 139.04571533 139.04571533a139.08916713 139.08916713 0 0 1-66.69849158 118.69579553A138.16943765 138.16943765 0 0 0 651.04571533 512v-23.17428589c0-63.88860941-51.98282004-115.87142945-115.87142944-115.87142944H349.77999878a23.17428589 23.17428589 0 0 0-23.17428589 23.17428588v393.96286012h-46.34857177z m231.74285888 463.48571778H372.95428467V419.30285644h46.34857178v301.26571656a23.17428589 23.17428589 0 0 0 23.17428589 23.17428588h115.87142944a277.26584674 277.26584674 0 0 0 171.63455485-59.2392683C678.99245573 748.81223393 600.22885155 790.09143067 512 790.09143067z"
          fill="#1296db" p-id="11125"></path>
</svg>