<svg t="1769048545661" class="icon" viewBox="0 0 1024 1024" version="1.1" xmlns="http://www.w3.org/2000/svg" p-id="19084" width="200" height="200"><path d="M457.92 181.12a272.896 272.896 0 0 1 279.808-85.888c49.28 13.44 62.016 74.048 27.2 108.928L648.96 320.128l54.976 54.976L819.84 259.2c32.896-33.088 89.152-23.424 106.432 19.584l2.56 7.488A272.896 272.896 0 0 1 593.28 621.824l-12.16-3.712-284.096 284.16a123.968 123.968 0 0 1-167.488 7.232l-7.872-7.232a123.968 123.968 0 0 1 0-175.36l284.16-284.16-3.648-12.16a272.96 272.96 0 0 1 46.656-238.336l8.96-11.2z m207.36-10.56a187.776 187.776 0 0 0-170.944 265.216 42.56 42.56 0 0 1-8.704 47.616L181.952 787.2a38.848 38.848 0 0 0 54.976 54.976l303.68-303.68a42.56 42.56 0 0 1 47.616-8.704 187.776 187.776 0 0 0 265.216-170.944l-0.448-12.416-92.416 92.416c-29.44 28.8-75.264 30.72-107.072 5.504l-6.592-5.76-61.696-61.76a80.96 80.96 0 0 1 0-113.28l92.48-92.544-12.48-0.384z" p-id="19085" fill="#515151"></path></svg>