<svg t="1769048162362" class="icon" viewBox="0 0 1024 1024" version="1.1" xmlns="http://www.w3.org/2000/svg" p-id="6347" width="200" height="200"><path d="M512 64C264.6 64 64 264.6 64 512s200.6 448 448 448 448-200.6 448-448S759.4 64 512 64z m271.5 719.5c-35.3 35.3-76.4 63-122.1 82.3-47.3 20-97.6 30.2-149.4 30.2-51.9 0-102.2-10.1-149.5-30.2-45.7-19.3-86.8-47-122.1-82.3s-63-76.4-82.3-122.1c-20-47.3-30.1-97.6-30.1-149.4 0-51.9 10.1-102.2 30.1-149.5 19.3-45.7 47-86.8 82.3-122.1s76.4-63 122.1-82.3c47.3-20 97.6-30.1 149.5-30.1 51.9 0 102.1 10.1 149.4 30.1 45.7 19.3 86.8 47 122.1 82.3s63 76.4 82.3 122.1c20 47.3 30.2 97.6 30.2 149.5 0 51.9-10.1 102.1-30.2 149.4-19.3 45.7-47 86.8-82.3 122.1z" fill="#515151" p-id="6348"></path><path d="M384 384h256v256H384z" fill="#515151" p-id="6349"></path></svg>