<svg t="1769049247026" class="icon" viewBox="0 0 1024 1024" version="1.1" xmlns="http://www.w3.org/2000/svg" p-id="39770" width="200" height="200"><path d="M802.2016 24.2176c2.7136 0 5.3248 0.8192 7.424 2.3552l208.9984 149.2992a12.7488 12.7488 0 0 1 0 20.7872l-208.896 149.2992a12.8 12.8 0 0 1-20.2752-10.4448l-0.0512-102.4h-259.0208c-7.424 0-15.5136 8.192-17.152 20.5824l-0.3584 4.9152v506.3168c0 13.4656 7.168 23.0912 14.6944 25.088l2.7648 0.3584h259.072v-101.9392a12.7488 12.7488 0 0 1 20.224-10.3936l208.9984 149.248a12.8 12.8 0 0 1 0 20.8384l-208.896 149.248a12.6976 12.6976 0 0 1-18.432-3.6864 12.8 12.8 0 0 1-1.8432-6.656l-0.0512-103.7824h-259.0208c-59.7504 0-106.496-49.92-110.1312-110.7456l-0.256-7.5776v-206.7456H270.7456a139.3152 139.3152 0 1 1 0-92.8768h149.248V258.6112c0-61.6448 44.3904-113.9712 103.0144-118.0672l7.3216-0.256h259.0208l0.1024-103.3216a12.8 12.8 0 0 1 12.8-12.8z" p-id="39771" fill="#515151"></path></svg>