<svg t="1769049492387" class="icon" viewBox="0 0 1024 1024" version="1.1" xmlns="http://www.w3.org/2000/svg" p-id="53517" width="200" height="200"><path d="M969.728 677.376H916.48v-78.848c0-71.68-55.808-129.536-124.928-129.536h-247.296V370.176H599.04c12.288 0 22.528-9.216 22.528-21.504V194.56c0-14.336-11.776-27.136-26.112-27.136h-153.6c-12.288 0-22.528 10.752-22.528 23.552v154.112c0 14.336 11.776 25.088 26.112 25.088h51.2v98.816H238.592c-61.952 0-113.664 52.736-113.664 115.712v92.672h-56.32c-12.288 0-22.016 11.264-22.016 23.552V855.04c0 14.336 11.264 25.088 25.6 25.088h154.112c12.288 0 23.04-8.704 23.04-21.504v-154.112c0-14.336-11.776-27.136-26.624-27.136H169.984v-92.672c0-37.888 31.232-70.144 68.608-70.144H496.64v162.816H441.856c-12.288 0-22.528 11.264-22.528 23.552V855.04c0 14.336 11.776 25.088 26.112 25.088h154.112c12.288 0 22.528-8.704 22.528-21.504v-154.112c0-14.336-11.776-27.136-26.112-27.136h-51.2v-162.816h247.296c43.52 0 79.36 37.888 79.36 83.968v78.848h-55.808c-12.288 0-23.04 11.264-23.04 23.552V855.04c0 14.336 11.776 25.088 26.624 25.088h153.6c12.288 0 22.016-8.704 22.016-21.504v-154.112c0-14.336-10.752-27.136-25.088-27.136z" p-id="53518" fill="#515151"></path></svg>