<svg t="1769048115841" class="icon" viewBox="0 0 1024 1024" version="1.1" xmlns="http://www.w3.org/2000/svg" p-id="7275" width="200" height="200"><path d="M512 64c247.424 0 448 200.576 448 448s-200.576 448-448 448S64 759.424 64 512 264.576 64 512 64z m0 64C299.936 128 128 299.936 128 512s171.936 384 384 384 384-171.936 384-384S724.064 128 512 128z m-28.48 194.336l204.608 136.416a64 64 0 0 1 0 106.496l-204.64 136.416A64 64 0 0 1 384 648.416v-272.832a64 64 0 0 1 99.52-53.248zM448 375.584v272.832L652.608 512 448 375.584z" fill="#515151" p-id="7276"></path></svg>